<?xml version="1.0" encoding="utf-8"?>
<!-- Generator: Adobe Illustrator 15.1.0, SVG Export Plug-In . SVG Version: 6.00 Build 0)  -->
<!DOCTYPE svg PUBLIC "-//W3C//DTD SVG 1.1//EN" "http://www.w3.org/Graphics/SVG/1.1/DTD/svg11.dtd">
<svg version="1.1" id="Layer_1" xmlns="http://www.w3.org/2000/svg" xmlns:xlink="http://www.w3.org/1999/xlink" x="0px" y="0px"
	 width="216.457px" height="75.107px" viewBox="0 0 216.457 75.107" enable-background="new 0 0 216.457 75.107"
	 xml:space="preserve">
<g id="Black_Blackground">
</g>
<g id="SemiBold">
	<g>
		<path d="M215.707,63.767c0,6.53-4.797,10.591-11.321,10.591H12.572C6.043,74.358,0.75,69.06,0.75,62.53V12.573
			C0.75,6.045,6.043,0.75,12.572,0.75h191.814c6.524,0,11.321,5.295,11.321,11.822V63.767z"/>
		<path fill="none" d="M204.386,75.108H12.572C5.64,75.108,0,69.465,0,62.53V12.573C0,5.64,5.641,0,12.572,0h191.814
			c6.769,0,12.071,5.521,12.071,12.572v51.194C216.457,70.55,211.606,75.108,204.386,75.108z M12.572,1.499
			C6.468,1.499,1.5,6.467,1.5,12.572v49.957c0,6.108,4.967,11.078,11.071,11.078h191.814c6.323,0,10.571-3.955,10.571-9.841V12.573
			c0-6.209-4.646-11.072-10.571-11.072L12.572,1.499L12.572,1.499z"/>
	</g>
	<g>
		<g>
			<path fill="#FFFFFF" d="M147.652,53.584l-1.615,1.521c-0.371,0.205-0.742,0.443-1.11,0.612c-1.121,0.509-2.263,0.638-3.272,0.638
				c-1.078,0-2.77-0.07-4.49-1.316c-2.396-1.688-3.442-4.588-3.442-7.112c0-5.231,4.259-7.798,7.731-7.798
				c1.215,0,2.463,0.304,3.477,0.943c1.686,1.113,2.122,2.562,2.363,3.34l-7.936,3.205l-2.598,0.201
				c0.841,4.289,3.74,6.784,6.947,6.784c1.604,0,2.791-0.521,3.885-1.062C147.589,53.542,147.808,53.428,147.652,53.584z
				 M142.865,45.051c0.646-0.234,0.979-0.438,0.979-0.906c0-1.348-1.524-2.904-3.345-2.904c-1.352,0-3.879,1.053-3.879,4.695
				c0,0.569,0.064,1.176,0.102,1.781L142.865,45.051z"/>
			<path fill="#FFFFFF" d="M131.064,53.322c0,1.312,0.234,1.518,1.344,1.617c0.578,0.068,1.153,0.1,1.727,0.166l-1.248,0.743h-5.947
				c0.78-1.012,0.914-1.112,0.914-1.786v-0.754l-0.013-20.063h-2.626l2.525-1.218h4.825c-1.046,0.605-1.358,0.977-1.493,2.155
				L131.064,53.322z"/>
			<path fill="#FFFFFF" d="M121.842,41.782c0.773,0.639,2.393,1.988,2.393,4.555c0,2.499-1.41,3.677-2.83,4.792
				c-0.437,0.438-0.945,0.915-0.945,1.649c0,0.746,0.512,1.15,0.877,1.453l1.221,0.94c1.48,1.251,2.833,2.396,2.833,4.728
				c0,3.176-3.071,6.375-8.877,6.375c-4.892,0-7.254-2.328-7.254-4.824c0-1.217,0.604-2.938,2.603-4.113
				c2.092-1.279,4.928-1.45,6.442-1.553c-0.476-0.609-1.017-1.252-1.017-2.299c0-0.569,0.172-0.912,0.338-1.312
				c-0.367,0.035-0.739,0.068-1.078,0.068c-3.578,0-5.604-2.67-5.604-5.301c0-1.553,0.707-3.271,2.161-4.521
				c1.925-1.584,4.218-1.857,6.041-1.857h6.954l-2.162,1.221L121.842,41.782L121.842,41.782z M119.451,56.764
				c-0.274-0.036-0.44-0.036-0.774-0.036c-0.308,0-2.129,0.066-3.541,0.54c-0.747,0.273-2.906,1.08-2.906,3.479
				c0,2.394,2.331,4.115,5.938,4.115c3.238,0,4.959-1.553,4.959-3.644C123.123,59.495,122.011,58.589,119.451,56.764z
				 M120.421,50.352c0.78-0.777,0.848-1.854,0.848-2.466c0-2.427-1.446-6.207-4.252-6.207c-0.875,0-1.823,0.438-2.36,1.118
				c-0.57,0.703-0.742,1.613-0.742,2.49c0,2.262,1.317,6.01,4.22,6.01C118.977,51.297,119.887,50.886,120.421,50.352z"/>
			<path fill="#FFFFFF" d="M100.919,56.284c-5.364,0-8.234-4.178-8.234-7.959c0-4.418,3.608-8.197,8.74-8.197
				c4.961,0,8.068,3.884,8.068,7.962C109.494,52.071,106.423,56.284,100.919,56.284z M105.14,53.556
				c0.815-1.08,1.015-2.428,1.015-3.741c0-2.973-1.416-8.641-5.602-8.641c-1.113,0-2.234,0.436-3.042,1.146
				c-1.318,1.183-1.553,2.664-1.553,4.119c0,3.334,1.647,8.834,5.737,8.834C103.016,55.274,104.363,54.634,105.14,53.556z"/>
			<path fill="#FFFFFF" d="M82.96,56.284c-5.365,0-8.23-4.178-8.23-7.959c0-4.418,3.609-8.197,8.739-8.197
				c4.958,0,8.062,3.884,8.062,7.962C91.532,52.071,88.465,56.284,82.96,56.284z M87.182,53.556c0.81-1.08,1.012-2.428,1.012-3.741
				c0-2.973-1.42-8.641-5.601-8.641c-1.117,0-2.226,0.436-3.036,1.146c-1.32,1.183-1.554,2.664-1.554,4.119
				c0,3.334,1.654,8.834,5.737,8.834C85.058,55.274,86.403,54.634,87.182,53.556z"/>
			<path fill="#FFFFFF" d="M72.585,55.115l-4.524,1.035c-1.833,0.289-3.479,0.543-5.222,0.543c-8.727,0-12.051-6.424-12.051-11.449
				c0-6.141,4.711-11.832,12.778-11.832c1.707,0,3.35,0.251,4.846,0.658c2.371,0.667,3.479,1.487,4.173,1.969l-2.628,2.496
				l-1.108,0.248l0.79-1.26c-1.07-1.045-3.037-2.974-6.77-2.974c-4.991,0-8.757,3.794-8.757,9.333c0,5.949,4.3,11.545,11.194,11.545
				c2.026,0,3.069-0.406,4.016-0.787v-5.1l-4.776,0.257l2.532-1.36h6.703l-0.819,0.79c-0.222,0.188-0.251,0.252-0.313,0.504
				c-0.033,0.288-0.063,1.204-0.063,1.526L72.585,55.115L72.585,55.115z"/>
		</g>
		<g>
			<path fill="#FFFFFF" d="M157.379,53.728v8.597h-1.707V40.45h1.707v2.49c1.111-1.606,3.144-2.886,5.504-2.886
				c4.232,0,7.084,3.211,7.084,8.294c0,5.049-2.852,8.327-7.084,8.327C160.654,56.678,158.66,55.529,157.379,53.728z
				 M168.133,48.351c0-3.831-1.997-6.753-5.538-6.753c-2.199,0-4.302,1.729-5.216,3.235v7.001c0.914,1.51,3.017,3.301,5.216,3.301
				C166.136,55.135,168.133,52.188,168.133,48.351z"/>
			<path fill="#FFFFFF" d="M172.298,56.282v-21.87h1.706v21.871L172.298,56.282L172.298,56.282z"/>
			<path fill="#FFFFFF" d="M193.158,60.907c0.364,0.162,0.987,0.266,1.383,0.266c1.045,0,1.771-0.43,2.427-1.938l1.243-2.818
				l-6.725-15.967h1.903l5.769,13.834l5.713-13.834h1.933l-8.201,19.313c-0.853,1.99-2.188,2.947-4.026,2.947
				c-0.555,0-1.279-0.101-1.707-0.229L193.158,60.907z"/>
			<path fill="#FFFFFF" d="M188.172,56.237c-0.114-0.549-0.2-1.029-0.264-1.437c-0.055-0.403-0.082-0.815-0.082-1.233
				c-0.586,0.858-1.414,1.573-2.476,2.137c-1.062,0.566-2.063,0.848-3.446,0.848c-1.662,0-2.953-0.409-3.875-1.239
				c-0.918-0.829-1.382-1.952-1.382-3.372s0.671-2.572,2.005-3.453c1.334-0.885,3.059-1.324,5.19-1.324h3.979v-1.967
				c0-1.134-0.388-2.021-1.158-2.67c-0.771-0.646-1.857-0.975-3.268-0.975c-1.287,0-2.332,0.299-3.127,0.881
				c-0.787,0.594-1.186,1.33-1.186,2.217h-1.746l-0.036-0.084c-0.063-1.195,0.483-2.246,1.647-3.149
				c1.154-0.904,2.674-1.359,4.541-1.359c1.858,0,3.366,0.448,4.502,1.342c1.135,0.886,1.703,2.164,1.703,3.837v7.812
				c0,0.561,0.024,1.103,0.098,1.631c0.072,0.528,0.188,1.057,0.34,1.564h-1.965v-0.006H188.172z M182.115,54.991
				c1.449,0,2.491-0.321,3.56-0.965c1.058-0.638,1.774-1.469,2.153-2.475v-3.04h-4c-1.526,0-2.793,0.338-3.789,1.021
				s-1.502,1.504-1.502,2.461c0,0.902,0.319,1.625,0.957,2.174C180.131,54.719,181.002,54.991,182.115,54.991z"/>
		</g>
	</g>
	<g>
		<polygon fill="none" points="28.499,47.459 33.975,41.983 33.973,41.983 28.499,47.459 11.021,29.984 11.021,29.984
			28.499,47.462 10.994,64.968 10.994,64.968 28.499,47.462 33.999,52.962 34.001,52.962 		"/>

			<linearGradient id="SVGID_1_" gradientUnits="userSpaceOnUse" x1="1626.0898" y1="268.2971" x2="1603.0117" y2="282.7404" gradientTransform="matrix(0.7071 0.7071 0.7071 -0.7071 -1314.7069 -914.0397)">
			<stop  offset="0" style="stop-color:#D6FFA1"/>
			<stop  offset="0.3264" style="stop-color:#93E2A7"/>
			<stop  offset="1" style="stop-color:#00A3B5"/>
		</linearGradient>
		<path fill="url(#SVGID_1_)" d="M33.973,41.983L12.637,30.251c-0.604-0.331-1.163-0.408-1.615-0.27L28.5,47.459L33.973,41.983z"/>

			<linearGradient id="SVGID_2_" gradientUnits="userSpaceOnUse" x1="1612.668" y1="280.637" x2="1642.5948" y2="272.8137" gradientTransform="matrix(0.7071 0.7071 0.7071 -0.7071 -1314.7069 -914.0397)">
			<stop  offset="0" style="stop-color:#FF177B"/>
			<stop  offset="0.6721" style="stop-color:#FFA976"/>
			<stop  offset="1" style="stop-color:#FFEC73"/>
		</linearGradient>
		<path fill="url(#SVGID_2_)" d="M34.001,52.962l7.283-4.005c1.477-0.815,1.477-2.145,0-2.954l-7.311-4.021l-5.476,5.479
			L34.001,52.962z"/>

			<linearGradient id="SVGID_3_" gradientUnits="userSpaceOnUse" x1="1629.377" y1="257.343" x2="1596.9307" y2="276.4325" gradientTransform="matrix(0.7071 0.7071 0.7071 -0.7071 -1314.7069 -914.0397)">
			<stop  offset="0" style="stop-color:#63FFD4"/>
			<stop  offset="0.4854" style="stop-color:#32A0BA"/>
			<stop  offset="0.8349" style="stop-color:#1262A9"/>
			<stop  offset="1" style="stop-color:#064AA2"/>
		</linearGradient>
		<path fill="url(#SVGID_3_)" d="M11.021,29.984c-0.649,0.203-1.069,0.86-1.069,1.854l0.004,31.281c0,0.982,0.407,1.633,1.038,1.849
			L28.5,47.462L11.021,29.984z"/>

			<linearGradient id="SVGID_4_" gradientUnits="userSpaceOnUse" x1="1641.1533" y1="272.5002" x2="1621.1748" y2="246.1798" gradientTransform="matrix(0.7071 0.7071 0.7071 -0.7071 -1314.7069 -914.0397)">
			<stop  offset="0" style="stop-color:#FF4521"/>
			<stop  offset="0.3411" style="stop-color:#D43E65"/>
			<stop  offset="0.7935" style="stop-color:#9F36B9"/>
			<stop  offset="1" style="stop-color:#8A33DB"/>
		</linearGradient>
		<path fill="url(#SVGID_4_)" d="M10.994,64.968c0.454,0.151,1.024,0.082,1.643-0.258L34,52.962l-5.5-5.5L10.994,64.968z"/>
	</g>
	<g>
		<g>
			<path fill="#FFFFFF" d="M53.926,12.198h-3.281v-1.185h7.987v1.185h-3.298v9.604h-1.408V12.198z"/>
			<path fill="#FFFFFF" d="M63.252,18.407l-1.12,3.396h-1.44l3.682-10.788h1.664l3.682,10.788h-1.488l-1.152-3.396H63.252z
				 M66.807,17.321l-1.072-3.104c-0.24-0.704-0.4-1.347-0.561-1.971h-0.032c-0.16,0.624-0.319,1.298-0.544,1.952l-1.057,3.122
				H66.807z M64.838,10.244c0.256-0.672,0.832-0.814,0.832-1.326c0-0.32-0.224-0.515-0.528-0.515c-0.336,0-0.607,0.288-0.8,0.562
				l-0.528-0.32c0.288-0.576,0.769-1.072,1.585-1.072c0.736,0,1.328,0.514,1.328,1.168c0,0.803-0.721,0.979-1.152,1.713
				L64.838,10.244z"/>
			<path fill="#FFFFFF" d="M73.094,11.014v10.788h-1.409V11.014H73.094z"/>
			<path fill="#FFFFFF" d="M85.623,21.802l-1.392-2.385c-0.561-0.912-0.896-1.507-1.232-2.131h-0.032
				c-0.304,0.624-0.624,1.2-1.169,2.146l-1.296,2.369h-1.601l3.297-5.458l-3.169-5.33h1.616l1.425,2.528
				c0.4,0.703,0.704,1.249,0.992,1.823h0.049c0.304-0.641,0.576-1.137,0.976-1.823l1.457-2.528h1.616l-3.281,5.25l3.361,5.538
				H85.623z"/>
			<path fill="#FFFFFF" d="M90.646,11.014v6.402c0,2.399,1.072,3.426,2.513,3.426c1.585,0,2.625-1.059,2.625-3.426v-6.402h1.408
				v6.307c0,3.312-1.744,4.657-4.081,4.657c-2.209,0-3.874-1.248-3.874-4.609v-6.354L90.646,11.014L90.646,11.014z"/>
			<path fill="#FFFFFF" d="M112.888,16.296c0,3.695-2.257,5.682-5.011,5.682c-2.864,0-4.85-2.209-4.85-5.474
				c0-3.41,2.111-5.65,5.01-5.685C110.982,10.821,112.904,13.077,112.888,16.296z M104.5,16.472c0,2.305,1.248,4.37,3.457,4.37
				s3.457-2.033,3.457-4.482c0-2.145-1.121-4.386-3.424-4.399C105.668,11.958,104.516,14.103,104.5,16.472z M108.613,8.597
				l1.506,1.824h-1.121l-0.881-1.12h-0.031l-0.881,1.12h-1.088l1.474-1.824H108.613z M112.119,7.38l-1.938,1.681h-0.833l1.346-1.681
				H112.119z"/>
			<path fill="#FFFFFF" d="M115.092,21.802V11.014h1.535l3.441,5.458c0.782,1.265,1.426,2.401,1.922,3.505l0.047-0.016
				c-0.127-1.44-0.16-2.753-0.16-4.436v-4.514h1.312V21.8h-1.407l-3.427-5.477c-0.752-1.198-1.473-2.433-2-3.601l-0.049,0.016
				c0.08,1.36,0.099,2.657,0.099,4.449v4.61h-1.312L115.092,21.802L115.092,21.802z"/>
			<path fill="#FFFFFF" d="M134.246,21.321c-0.623,0.24-1.871,0.593-3.328,0.593c-1.633,0-2.979-0.414-4.033-1.425
				c-0.93-0.896-1.505-2.337-1.505-4.018c0-3.218,2.225-5.57,5.843-5.57c1.248,0,2.24,0.272,2.705,0.496l-0.354,1.137
				c-0.576-0.271-1.297-0.464-2.387-0.464c-2.625,0-4.338,1.632-4.338,4.337c0,2.737,1.633,4.354,4.162,4.354
				c0.912,0,1.536-0.129,1.854-0.288v-3.218h-2.176v-1.12h3.553v5.186H134.246z"/>
			<path fill="#FFFFFF" d="M141.941,12.198h-3.281v-1.185h7.987v1.185h-3.298v9.604h-1.408V12.198L141.941,12.198z"/>
			<path fill="#FFFFFF" d="M148.244,11.156c0.703-0.128,1.729-0.224,2.672-0.224c1.488,0,2.466,0.288,3.121,0.88
				c0.526,0.48,0.85,1.217,0.85,2.065c0,1.406-0.896,2.353-2.018,2.734v0.049c0.813,0.288,1.312,1.058,1.566,2.179
				c0.354,1.504,0.607,2.545,0.832,2.961h-1.438c-0.176-0.32-0.416-1.232-0.705-2.577c-0.319-1.488-0.911-2.049-2.176-2.097h-1.312
				v4.674h-1.393V11.156z M149.636,16.071h1.424c1.489,0,2.435-0.814,2.435-2.049c0-1.393-1.01-2.001-2.479-2.001
				c-0.672,0-1.138,0.049-1.376,0.112L149.636,16.071L149.636,16.071z"/>
			<path fill="#FFFFFF" d="M162.822,16.743h-4.179v3.891h4.675v1.169h-6.084V11.014h5.844v1.168h-4.435v3.409h4.179V16.743
				L162.822,16.743z M160.676,8.613l1.681,1.825h-1.185l-1.008-1.104h-0.032l-1.024,1.104h-1.137l1.633-1.825H160.676z"/>
			<path fill="#FFFFFF" d="M165.524,21.802V11.014h1.536l3.441,5.458c0.783,1.265,1.425,2.401,1.921,3.505l0.048-0.016
				c-0.128-1.44-0.16-2.753-0.16-4.436v-4.514h1.312V21.8h-1.408l-3.426-5.477c-0.752-1.198-1.476-2.433-2-3.601l-0.049,0.016
				c0.08,1.36,0.096,2.657,0.096,4.449v4.61h-1.312L165.524,21.802L165.524,21.802z"/>
		</g>
	</g>
</g>
</svg>
