<?xml version="1.0" encoding="utf-8"?>
<!-- Generator: Adobe Illustrator 15.1.0, SVG Export Plug-In . SVG Version: 6.00 Build 0)  -->
<!DOCTYPE svg PUBLIC "-//W3C//DTD SVG 1.1//EN" "http://www.w3.org/Graphics/SVG/1.1/DTD/svg11.dtd">
<svg version="1.1" id="SemiBold" xmlns="http://www.w3.org/2000/svg" xmlns:xlink="http://www.w3.org/1999/xlink" x="0px" y="0px"
	 width="216.457px" height="75.107px" viewBox="0 0 216.457 75.107" enable-background="new 0 0 216.457 75.107"
	 xml:space="preserve">
<g>
	<path d="M215.707,63.767c0,6.531-4.797,10.592-11.321,10.592H12.572c-6.528,0-11.821-5.299-11.821-11.828V12.573
		C0.75,6.045,6.043,0.75,12.572,0.75h191.814c6.524,0,11.321,5.295,11.321,11.823V63.767z"/>
	<path fill="none" d="M204.386,75.109H12.572C5.64,75.109,0,69.466,0,62.531V12.573C0,5.64,5.641,0,12.572,0h191.814
		c6.769,0,12.071,5.522,12.071,12.573v51.194C216.457,70.55,211.606,75.109,204.386,75.109z M12.572,1.5
		C6.468,1.5,1.5,6.468,1.5,12.573v49.958c0,6.107,4.967,11.078,11.071,11.078h191.814c6.323,0,10.571-3.955,10.571-9.842V12.573
		c0-6.209-4.645-11.073-10.571-11.073H12.572z"/>
</g>
<g>
	<g>
		<path fill="#FFFFFF" d="M147.652,53.585l-1.615,1.52c-0.371,0.205-0.742,0.443-1.111,0.613c-1.121,0.508-2.262,0.637-3.273,0.637
			c-1.078,0-2.769-0.07-4.49-1.316c-2.396-1.688-3.442-4.588-3.442-7.113c0-5.23,4.259-7.797,7.731-7.797
			c1.215,0,2.463,0.303,3.477,0.943c1.686,1.113,2.122,2.562,2.363,3.34l-7.935,3.205l-2.598,0.201
			c0.841,4.289,3.741,6.785,6.948,6.785c1.604,0,2.791-0.521,3.884-1.062C147.589,53.542,147.808,53.429,147.652,53.585z
			 M142.865,45.052c0.646-0.234,0.979-0.439,0.979-0.906c0-1.348-1.524-2.904-3.345-2.904c-1.351,0-3.879,1.051-3.879,4.695
			c0,0.568,0.065,1.176,0.102,1.781L142.865,45.052z"/>
		<path fill="#FFFFFF" d="M131.064,53.322c0,1.312,0.234,1.518,1.344,1.617c0.578,0.068,1.153,0.1,1.726,0.166l-1.248,0.744h-5.947
			c0.78-1.012,0.914-1.113,0.914-1.787v-0.754l-0.013-20.063h-2.626l2.526-1.218h4.825c-1.046,0.605-1.358,0.976-1.493,2.155
			L131.064,53.322z"/>
		<path fill="#FFFFFF" d="M121.842,41.782c0.773,0.639,2.393,1.988,2.393,4.555c0,2.498-1.41,3.676-2.83,4.791
			c-0.437,0.438-0.945,0.916-0.945,1.65c0,0.746,0.511,1.15,0.877,1.453l1.22,0.941c1.481,1.25,2.833,2.396,2.833,4.727
			c0,3.176-3.072,6.375-8.877,6.375c-4.891,0-7.254-2.328-7.254-4.824c0-1.217,0.604-2.938,2.602-4.113
			c2.092-1.279,4.928-1.451,6.443-1.553c-0.475-0.609-1.016-1.252-1.016-2.299c0-0.57,0.172-0.912,0.338-1.312
			c-0.368,0.035-0.74,0.068-1.079,0.068c-3.578,0-5.603-2.67-5.603-5.301c0-1.553,0.707-3.271,2.161-4.52
			c1.925-1.584,4.218-1.857,6.041-1.857h6.954l-2.162,1.221h-2.096V41.782z M119.451,56.765c-0.275-0.037-0.441-0.037-0.775-0.037
			c-0.307,0-2.129,0.066-3.541,0.541c-0.747,0.273-2.906,1.08-2.906,3.479c0,2.393,2.331,4.115,5.938,4.115
			c3.238,0,4.959-1.553,4.959-3.645C123.123,59.495,122.011,58.589,119.451,56.765z M120.421,50.353
			c0.78-0.777,0.848-1.854,0.848-2.467c0-2.426-1.446-6.207-4.252-6.207c-0.875,0-1.823,0.438-2.36,1.119
			c-0.57,0.703-0.742,1.613-0.742,2.49c0,2.262,1.317,6.01,4.219,6.01C118.977,51.298,119.887,50.886,120.421,50.353z"/>
		<path fill="#FFFFFF" d="M100.919,56.284c-5.364,0-8.234-4.178-8.234-7.959c0-4.418,3.608-8.197,8.74-8.197
			c4.961,0,8.068,3.883,8.068,7.961C109.494,52.072,106.423,56.284,100.919,56.284z M105.14,53.556
			c0.815-1.08,1.015-2.428,1.015-3.74c0-2.973-1.416-8.641-5.602-8.641c-1.113,0-2.234,0.436-3.042,1.145
			c-1.318,1.182-1.553,2.664-1.553,4.119c0,3.334,1.647,8.834,5.737,8.834C103.016,55.275,104.363,54.634,105.14,53.556z"/>
		<path fill="#FFFFFF" d="M82.96,56.284c-5.365,0-8.23-4.178-8.23-7.959c0-4.418,3.609-8.197,8.739-8.197
			c4.958,0,8.062,3.883,8.062,7.961C91.532,52.072,88.465,56.284,82.96,56.284z M87.182,53.556c0.81-1.08,1.012-2.428,1.012-3.74
			c0-2.973-1.42-8.641-5.601-8.641c-1.117,0-2.226,0.436-3.036,1.145c-1.32,1.182-1.554,2.664-1.554,4.119
			c0,3.334,1.654,8.834,5.737,8.834C85.058,55.275,86.403,54.634,87.182,53.556z"/>
		<path fill="#FFFFFF" d="M72.585,55.115l-4.524,1.035c-1.833,0.289-3.479,0.543-5.222,0.543c-8.727,0-12.051-6.424-12.051-11.449
			c0-6.141,4.711-11.832,12.778-11.832c1.707,0,3.35,0.251,4.846,0.658c2.371,0.667,3.479,1.487,4.173,1.969l-2.628,2.496
			l-1.108,0.248l0.79-1.259c-1.07-1.045-3.037-2.974-6.77-2.974c-4.991,0-8.757,3.793-8.757,9.333c0,5.949,4.3,11.545,11.194,11.545
			c2.026,0,3.069-0.406,4.016-0.787v-5.1l-4.776,0.258l2.532-1.361h6.703l-0.819,0.791c-0.222,0.188-0.251,0.252-0.313,0.504
			c-0.033,0.287-0.063,1.203-0.063,1.525L72.585,55.115L72.585,55.115z"/>
	</g>
	<g>
		<path fill="#FFFFFF" d="M157.379,53.728v8.598h-1.707V40.45h1.707v2.49c1.111-1.607,3.144-2.885,5.504-2.885
			c4.232,0,7.084,3.211,7.084,8.293c0,5.049-2.852,8.328-7.084,8.328C160.654,56.679,158.66,55.529,157.379,53.728z M168.133,48.351
			c0-3.83-1.997-6.752-5.538-6.752c-2.199,0-4.302,1.729-5.216,3.234v7.002c0.914,1.51,3.017,3.301,5.216,3.301
			C166.136,55.136,168.133,52.189,168.133,48.351z"/>
		<path fill="#FFFFFF" d="M172.298,56.282v-21.87h1.706v21.872h-1.706V56.282z"/>
		<path fill="#FFFFFF" d="M193.158,60.907c0.364,0.162,0.987,0.266,1.383,0.266c1.045,0,1.771-0.43,2.426-1.938l1.244-2.818
			l-6.725-15.967h1.903l5.769,13.834l5.713-13.834h1.932l-8.201,19.314c-0.852,1.99-2.188,2.947-4.027,2.947
			c-0.554,0-1.279-0.1-1.707-0.23L193.158,60.907z"/>
		<path fill="#FFFFFF" d="M188.172,56.238c-0.114-0.549-0.2-1.031-0.264-1.438c-0.054-0.402-0.082-0.814-0.082-1.232
			c-0.586,0.857-1.414,1.572-2.475,2.137c-1.061,0.566-2.064,0.846-3.447,0.846c-1.662,0-2.953-0.408-3.875-1.238
			c-0.918-0.83-1.381-1.953-1.381-3.373s0.67-2.572,2.004-3.453c1.334-0.885,3.059-1.324,5.191-1.324h3.98v-1.967
			c0-1.133-0.388-2.021-1.158-2.67c-0.772-0.645-1.858-0.975-3.268-0.975c-1.287,0-2.332,0.299-3.127,0.881
			c-0.787,0.594-1.186,1.33-1.186,2.217h-1.746l-0.036-0.084c-0.063-1.195,0.483-2.246,1.647-3.15
			c1.155-0.904,2.674-1.359,4.541-1.359c1.859,0,3.367,0.449,4.502,1.342c1.135,0.887,1.703,2.164,1.703,3.838v7.811
			c0,0.561,0.025,1.104,0.098,1.631c0.072,0.529,0.188,1.057,0.34,1.566h-1.965v-0.004H188.172z M182.115,54.991
			c1.449,0,2.491-0.322,3.559-0.965c1.058-0.637,1.775-1.469,2.154-2.475v-3.039h-4c-1.527,0-2.793,0.338-3.789,1.02
			s-1.502,1.504-1.502,2.461c0,0.902,0.319,1.625,0.957,2.174C180.131,54.72,181.002,54.991,182.115,54.991z"/>
	</g>
</g>
<g>
	<polygon fill="none" points="28.499,47.46 33.975,41.984 33.973,41.984 28.499,47.46 11.021,29.984 11.021,29.984 28.499,47.462
		10.994,64.968 10.994,64.968 28.499,47.462 33.999,52.962 34.001,52.962 	"/>

		<linearGradient id="SVGID_1_" gradientUnits="userSpaceOnUse" x1="1252.7607" y1="-215.8582" x2="1229.6826" y2="-230.3014" gradientTransform="matrix(0.7071 0.7071 -0.7071 0.7071 -1013.6454 -687.1373)">
		<stop  offset="0" style="stop-color:#D6FFA1"/>
		<stop  offset="0.3264" style="stop-color:#93E2A7"/>
		<stop  offset="1" style="stop-color:#00A3B5"/>
	</linearGradient>
	<path fill="url(#SVGID_1_)" d="M33.973,41.984L12.637,30.252c-0.604-0.331-1.163-0.408-1.615-0.269L28.5,47.46L33.973,41.984z"/>

		<linearGradient id="SVGID_2_" gradientUnits="userSpaceOnUse" x1="1239.3398" y1="-228.1965" x2="1269.2637" y2="-220.374" gradientTransform="matrix(0.7071 0.7071 -0.7071 0.7071 -1013.6454 -687.1373)">
		<stop  offset="0" style="stop-color:#FF177B"/>
		<stop  offset="0.6721" style="stop-color:#FFA976"/>
		<stop  offset="1" style="stop-color:#FFEC73"/>
	</linearGradient>
	<path fill="url(#SVGID_2_)" d="M34.001,52.962l7.283-4.004c1.477-0.816,1.477-2.145,0-2.955l-7.311-4.021l-5.476,5.479
		L34.001,52.962z"/>

		<linearGradient id="SVGID_3_" gradientUnits="userSpaceOnUse" x1="1256.0459" y1="-204.905" x2="1223.6006" y2="-223.994" gradientTransform="matrix(0.7071 0.7071 -0.7071 0.7071 -1013.6454 -687.1373)">
		<stop  offset="0" style="stop-color:#63FFD4"/>
		<stop  offset="0.4854" style="stop-color:#32A0BA"/>
		<stop  offset="0.8349" style="stop-color:#1262A9"/>
		<stop  offset="1" style="stop-color:#064AA2"/>
	</linearGradient>
	<path fill="url(#SVGID_3_)" d="M11.021,29.984c-0.649,0.203-1.069,0.86-1.069,1.854L9.956,63.12c0,0.982,0.407,1.633,1.038,1.848
		L28.5,47.462L11.021,29.984z"/>

		<linearGradient id="SVGID_4_" gradientUnits="userSpaceOnUse" x1="1267.8223" y1="-220.0603" x2="1247.8451" y2="-193.7414" gradientTransform="matrix(0.7071 0.7071 -0.7071 0.7071 -1013.6454 -687.1373)">
		<stop  offset="0" style="stop-color:#FF4521"/>
		<stop  offset="0.3411" style="stop-color:#D43E65"/>
		<stop  offset="0.7935" style="stop-color:#9F36B9"/>
		<stop  offset="1" style="stop-color:#8A33DB"/>
	</linearGradient>
	<path fill="url(#SVGID_4_)" d="M10.994,64.968c0.454,0.152,1.024,0.082,1.643-0.258L34,52.962l-5.5-5.5L10.994,64.968z"/>
</g>
<g>
	<g>
		<path fill="#FFFFFF" d="M56.109,20.419c-0.405-0.522-0.769-0.917-1.088-1.186l0.735-0.672c0.491,0.523,0.963,1.067,1.416,1.632
			c0.453,0.565,0.926,1.211,1.416,1.938l-0.912,0.606c-0.149-0.275-0.31-0.549-0.479-0.814c-0.171-0.268-0.347-0.522-0.528-0.77
			l-3.072,1.297c-0.427,0.182-0.792,0.35-1.096,0.504c-0.304,0.154-0.595,0.322-0.872,0.505c-0.074-0.183-0.168-0.355-0.279-0.521
			c-0.112-0.165-0.232-0.322-0.36-0.472c0.117-0.117,0.221-0.237,0.312-0.36c0.091-0.122,0.166-0.261,0.225-0.416
			c0.059-0.154,0.101-0.333,0.128-0.536c0.026-0.202,0.04-0.441,0.04-0.72v-8.048c0-0.14-0.003-0.299-0.008-0.48
			c-0.006-0.181-0.014-0.358-0.024-0.535c-0.011-0.177-0.021-0.347-0.032-0.513c-0.011-0.165-0.021-0.307-0.032-0.424
			c0.277,0.054,0.659,0.099,1.145,0.136c0.485,0.038,1.096,0.058,1.832,0.058s1.397-0.02,1.984-0.058
			c0.586-0.037,1.023-0.082,1.312-0.136c-0.011,0.128-0.021,0.275-0.032,0.44c-0.011,0.164-0.019,0.336-0.023,0.512
			c-0.006,0.176-0.011,0.352-0.017,0.527c-0.005,0.177-0.008,0.333-0.008,0.473v3.04c0,0.811,0.032,1.504,0.096,2.08
			c-0.277-0.032-0.643-0.057-1.096-0.072c-0.453-0.016-0.92-0.023-1.4-0.023h-2.703v4.385c0.832-0.277,1.517-0.528,2.056-0.752
			C55.279,20.818,55.735,20.61,56.109,20.419z M56.828,11.442h-4.144v2.192h4.144V11.442z M56.828,14.434h-4.144v2.16h4.144V14.434z
			 M64.317,10.755c-0.054,0.256-0.094,0.544-0.12,0.863c-0.027,0.319-0.04,0.764-0.04,1.327v7.152c0,0.342-0.035,0.627-0.104,0.855
			c-0.069,0.229-0.199,0.425-0.392,0.584c-0.193,0.16-0.459,0.288-0.8,0.385c-0.342,0.096-0.79,0.176-1.344,0.239
			c0.021-0.244-0.009-0.464-0.089-0.655c-0.079-0.192-0.216-0.391-0.407-0.593c0.512,0.031,0.912,0.034,1.199,0.009
			c0.288-0.026,0.505-0.08,0.648-0.16s0.234-0.188,0.272-0.32c0.037-0.133,0.056-0.29,0.056-0.472v-8.271h-3.104v12.703h-1.056
			c0.043-0.629,0.074-1.224,0.096-1.783c0.021-0.561,0.032-1.177,0.032-1.849v-7.824c0-0.373-0.011-0.768-0.032-1.184
			s-0.042-0.752-0.063-1.008c0.309,0.043,0.68,0.073,1.111,0.096c0.433,0.021,0.931,0.032,1.496,0.032
			c0.533,0,1.029-0.012,1.488-0.032C63.623,10.828,64.007,10.798,64.317,10.755z"/>
		<path fill="#FFFFFF" d="M70.717,13.122c-0.395,0-0.729,0.003-1,0.009c-0.272,0.006-0.534,0.014-0.784,0.022
			c-0.251,0.011-0.507,0.027-0.769,0.049c-0.261,0.021-0.573,0.049-0.936,0.08v-1.089c0.416,0.032,0.768,0.061,1.056,0.08
			c0.288,0.021,0.576,0.038,0.864,0.048c0.288,0.012,0.613,0.021,0.977,0.024c0.362,0.006,0.826,0.008,1.392,0.008
			c0.544,0,0.997-0.002,1.36-0.008c0.362-0.005,0.69-0.014,0.983-0.024c0.293-0.01,0.59-0.025,0.889-0.048
			c0.298-0.021,0.655-0.048,1.071-0.08v1.089c-0.459-0.043-0.843-0.074-1.151-0.097c-0.31-0.021-0.63-0.037-0.96-0.048
			c-0.331-0.011-0.71-0.017-1.137-0.017c-0.427,0-0.981,0-1.664,0c0.331,0.234,0.619,0.41,0.864,0.527
			c0.117,0.054,0.171,0.118,0.16,0.192c-0.011,0.075-0.091,0.123-0.24,0.144c-0.063,0.011-0.162,0.078-0.296,0.2
			c-0.134,0.123-0.243,0.232-0.328,0.328c-0.149,0.182-0.282,0.342-0.399,0.479c-0.118,0.14-0.232,0.277-0.345,0.416
			c-0.111,0.14-0.231,0.285-0.359,0.439c-0.128,0.155-0.272,0.334-0.433,0.536l2.896-0.128c0.234-0.311,0.439-0.629,0.616-0.96
			c0.176-0.331,0.338-0.698,0.487-1.104c0.192,0.171,0.363,0.309,0.513,0.408c0.148,0.102,0.298,0.195,0.447,0.28
			c0.139,0.062,0.192,0.134,0.16,0.208c-0.032,0.073-0.106,0.134-0.224,0.176c-0.064,0.011-0.152,0.063-0.265,0.16
			c-0.111,0.096-0.274,0.288-0.487,0.576c-0.32,0.438-0.635,0.84-0.944,1.208c-0.309,0.367-0.65,0.729-1.023,1.088
			c-0.374,0.356-0.795,0.728-1.265,1.111c-0.47,0.385-1.014,0.806-1.632,1.265c-0.149-0.192-0.291-0.343-0.424-0.448
			c-0.134-0.106-0.296-0.202-0.488-0.288c0.362-0.17,0.686-0.336,0.968-0.496c0.283-0.159,0.555-0.333,0.816-0.52
			c0.261-0.188,0.522-0.396,0.784-0.624c0.261-0.229,0.552-0.499,0.872-0.809l0.464-0.465l-2.225,0.177
			c-0.234,0.021-0.453,0.057-0.655,0.104c-0.203,0.048-0.379,0.099-0.528,0.151c-0.021-0.244-0.062-0.441-0.12-0.592
			c-0.058-0.149-0.136-0.299-0.231-0.447c0.202-0.064,0.424-0.194,0.664-0.394c0.239-0.197,0.482-0.438,0.728-0.728
			s0.48-0.616,0.704-0.984S70.557,13.55,70.717,13.122z M72.828,20.738c-0.287,0.299-0.592,0.579-0.911,0.841
			c-0.32,0.262-0.664,0.521-1.032,0.775c-0.368,0.255-0.766,0.51-1.192,0.76c-0.427,0.251-0.896,0.516-1.408,0.792
			c-0.128-0.224-0.245-0.401-0.352-0.535c-0.106-0.134-0.283-0.274-0.528-0.425c0.864-0.224,1.718-0.581,2.561-1.07
			c0.842-0.491,1.632-1.12,2.368-1.89c0.501-0.512,0.922-1.025,1.264-1.544c0.341-0.517,0.64-1.11,0.896-1.783
			c0.203,0.17,0.376,0.305,0.521,0.399c0.144,0.096,0.29,0.182,0.439,0.256c0.117,0.054,0.168,0.123,0.152,0.208
			c-0.016,0.086-0.083,0.149-0.2,0.192c-0.063,0.021-0.151,0.08-0.264,0.176c-0.113,0.096-0.274,0.288-0.488,0.576
			c-0.416,0.619-0.843,1.179-1.28,1.68c0.523,0.342,1.029,0.687,1.521,1.032c0.49,0.347,0.923,0.675,1.296,0.983l-0.848,0.863
			c-0.246-0.352-0.587-0.731-1.024-1.144C73.878,21.472,73.383,21.091,72.828,20.738z M72.269,12.098
			c-0.203-0.202-0.39-0.384-0.56-0.544c-0.171-0.16-0.348-0.312-0.528-0.456c-0.182-0.145-0.374-0.29-0.576-0.439
			c-0.203-0.148-0.432-0.314-0.688-0.496l0.56-0.688c0.299,0.192,0.562,0.368,0.792,0.528c0.23,0.159,0.442,0.313,0.64,0.464
			c0.198,0.149,0.387,0.302,0.568,0.456c0.181,0.153,0.368,0.316,0.56,0.487L72.269,12.098z M77.949,12.259
			c-0.117,0.074-0.176,0.219-0.176,0.432v5.248c0,0.16,0.003,0.347,0.008,0.562c0.006,0.213,0.014,0.435,0.024,0.663
			c0.01,0.229,0.021,0.458,0.032,0.688c0.01,0.229,0.026,0.44,0.048,0.632h-1.152c0.011-0.19,0.024-0.401,0.04-0.632
			c0.016-0.23,0.029-0.461,0.04-0.696c0.011-0.233,0.019-0.455,0.024-0.663c0.005-0.208,0.008-0.393,0.008-0.553v-3.982
			c0-0.405-0.011-0.81-0.032-1.208c-0.021-0.4-0.054-0.707-0.096-0.921c0.213,0.054,0.416,0.092,0.607,0.111
			c0.192,0.021,0.374,0.027,0.544,0.018c0.139-0.021,0.217,0.005,0.232,0.079C78.117,12.109,78.065,12.184,77.949,12.259z
			 M80.701,10.291c-0.139,0.073-0.208,0.219-0.208,0.432v11.616c0,0.342-0.021,0.624-0.063,0.848
			c-0.043,0.225-0.149,0.408-0.32,0.552c-0.171,0.146-0.419,0.263-0.744,0.354c-0.325,0.091-0.766,0.168-1.319,0.23
			c0-0.224-0.027-0.429-0.08-0.614c-0.054-0.188-0.188-0.394-0.4-0.616c0.448,0.042,0.803,0.059,1.064,0.048
			c0.261-0.011,0.458-0.054,0.592-0.128c0.133-0.075,0.219-0.176,0.256-0.304c0.037-0.129,0.056-0.283,0.056-0.465v-9.855
			c0-0.565-0.013-1.088-0.04-1.568c-0.026-0.479-0.056-0.832-0.088-1.056c0.214,0.054,0.411,0.091,0.592,0.112
			c0.182,0.021,0.374,0.03,0.576,0.03c0.149,0,0.237,0.049,0.265,0.146C80.864,10.146,80.818,10.226,80.701,10.291z"/>
		<path fill="#FFFFFF" d="M93.244,11.522c0.843,0,1.616-0.008,2.319-0.022c0.704-0.018,1.312-0.052,1.824-0.104v1.057
			c-0.512-0.054-1.12-0.089-1.824-0.104c-0.703-0.016-1.477-0.024-2.319-0.024v1.218H92.3v-1.218h-3.744v1.232h-0.943v-1.232
			c-0.832,0-1.601,0.01-2.305,0.024s-1.312,0.051-1.823,0.104v-1.057c0.512,0.054,1.119,0.088,1.823,0.104
			c0.704,0.016,1.473,0.022,2.305,0.022c-0.011-0.725-0.043-1.264-0.097-1.616c0.214,0.032,0.408,0.058,0.584,0.072
			c0.177,0.017,0.365,0.024,0.568,0.024c0.085,0,0.136,0.031,0.152,0.096c0.016,0.063-0.02,0.123-0.104,0.176
			c-0.054,0.032-0.094,0.1-0.12,0.2s-0.04,0.2-0.04,0.296v0.752H92.3c0-0.704-0.032-1.258-0.096-1.664
			c0.213,0.032,0.41,0.058,0.592,0.072c0.182,0.015,0.368,0.023,0.561,0.023c0.085,0,0.136,0.023,0.151,0.071
			c0.017,0.049-0.014,0.1-0.088,0.152c-0.063,0.043-0.109,0.111-0.136,0.208c-0.027,0.096-0.04,0.191-0.04,0.288V11.522z
			 M86.573,16.419c-0.342,0.276-0.691,0.541-1.048,0.792c-0.358,0.251-0.724,0.487-1.097,0.712
			c-0.074-0.171-0.157-0.303-0.248-0.394c-0.091-0.09-0.216-0.184-0.376-0.278c0.448-0.226,0.858-0.456,1.232-0.696
			c0.373-0.24,0.72-0.482,1.04-0.729c-0.214-0.234-0.448-0.475-0.704-0.721c-0.256-0.245-0.502-0.442-0.736-0.592l0.528-0.656
			c0.277,0.203,0.555,0.427,0.832,0.672c0.277,0.246,0.522,0.491,0.736,0.736c0.469-0.416,0.9-0.891,1.296-1.424
			c0.148,0.16,0.288,0.294,0.416,0.399c0.128,0.106,0.271,0.22,0.432,0.336c0.064,0.042,0.08,0.111,0.048,0.208
			c-0.032,0.097-0.091,0.145-0.176,0.145c-0.117,0-0.296,0.062-0.536,0.184c-0.24,0.123-0.573,0.371-1,0.744
			c0.555,0.79,0.931,1.656,1.128,2.602c0.197,0.942,0.194,2.04-0.008,3.287c-0.064,0.405-0.166,0.744-0.304,1.017
			c-0.139,0.271-0.339,0.499-0.601,0.68c-0.262,0.183-0.595,0.325-1,0.434c-0.405,0.105-0.912,0.196-1.52,0.271
			c0.011-0.234-0.008-0.432-0.057-0.592c-0.048-0.16-0.146-0.347-0.296-0.561c0.544,0.054,0.992,0.071,1.345,0.057
			c0.352-0.017,0.637-0.086,0.855-0.208c0.218-0.122,0.384-0.305,0.496-0.544c0.112-0.24,0.2-0.559,0.264-0.952
			c0.16-0.981,0.149-1.914-0.031-2.8c-0.438,0.575-0.923,1.131-1.456,1.664c-0.534,0.532-1.062,0.991-1.584,1.376
			c-0.118-0.14-0.254-0.268-0.408-0.385c-0.155-0.116-0.317-0.229-0.488-0.336c0.8-0.447,1.515-0.948,2.145-1.505
			c0.629-0.554,1.136-1.136,1.52-1.743C87.031,17.171,86.818,16.77,86.573,16.419z M91.804,17.795
			c-0.672,0.011-1.27,0.025-1.792,0.048c-0.522,0.021-0.986,0.059-1.392,0.111v-1.057c0.224,0.021,0.448,0.043,0.672,0.064
			c0.224,0.021,0.467,0.037,0.728,0.048c0.262,0.011,0.544,0.021,0.849,0.032c0.304,0.011,0.647,0.016,1.032,0.016
			c0.042-0.49,0.053-1.002,0.031-1.536c-0.021-0.533-0.08-1.088-0.176-1.664c0.234,0.086,0.448,0.146,0.64,0.177
			c0.192,0.031,0.395,0.042,0.608,0.031c0.149-0.01,0.234,0.04,0.256,0.152c0.022,0.111-0.043,0.216-0.191,0.312
			c-0.097,0.064-0.174,0.28-0.232,0.648c-0.058,0.368-0.094,0.995-0.104,1.88c0.885,0,1.717-0.013,2.495-0.04
			c0.779-0.026,1.408-0.066,1.889-0.12v1.057c-0.48-0.054-1.051-0.094-1.712-0.119c-0.662-0.026-1.436-0.04-2.32-0.04
			c0.416,1.142,0.979,2.142,1.688,3c0.71,0.857,1.598,1.564,2.664,2.119c-0.149,0.106-0.287,0.234-0.416,0.385
			c-0.128,0.148-0.256,0.33-0.384,0.544c-0.981-0.778-1.8-1.61-2.456-2.496c-0.655-0.885-1.197-1.895-1.624-3.024
			c-0.213,1.035-0.618,2.038-1.216,3.01c-0.598,0.971-1.456,1.877-2.576,2.72c-0.117-0.149-0.237-0.272-0.359-0.368
			c-0.123-0.096-0.307-0.197-0.553-0.304c1.089-0.63,1.966-1.402,2.633-2.32C91.151,20.141,91.591,19.053,91.804,17.795z
			 M95.419,16.738c-0.214-0.275-0.49-0.569-0.832-0.88c-0.342-0.309-0.698-0.575-1.072-0.8l0.561-0.624
			c0.319,0.225,0.626,0.456,0.92,0.696c0.293,0.239,0.643,0.558,1.048,0.952L95.419,16.738z"/>
		<path fill="#FFFFFF" d="M101.069,11.538c-0.234,0-0.453,0.012-0.656,0.031c-0.202,0.021-0.395,0.055-0.576,0.098v-1.024
			c0.139,0.021,0.312,0.04,0.521,0.057c0.208,0.017,0.461,0.029,0.76,0.039c0.299,0.012,0.65,0.021,1.056,0.024
			c0.404,0.006,0.875,0.008,1.408,0.008c1.014,0,1.783-0.011,2.312-0.032c0.527-0.021,0.914-0.053,1.16-0.096v1.024
			c-0.171-0.043-0.323-0.072-0.456-0.089c-0.134-0.017-0.296-0.028-0.488-0.04v8.145c0.299-0.074,0.592-0.146,0.881-0.216
			c0.287-0.07,0.575-0.143,0.863-0.216c-0.021,0.148-0.029,0.31-0.023,0.479c0.006,0.171,0.019,0.31,0.039,0.416
			c-0.31,0.054-0.609,0.109-0.903,0.168c-0.293,0.059-0.578,0.115-0.854,0.168v0.688c0,0.416,0.002,0.774,0.008,1.08
			c0.006,0.304,0.014,0.577,0.023,0.823c0.01,0.245,0.025,0.464,0.048,0.655c0.021,0.192,0.042,0.384,0.063,0.576h-1.231
			c0.042-0.299,0.074-0.698,0.097-1.2c0.021-0.501,0.031-1.146,0.031-1.936v-0.496c-2.432,0.501-4.176,0.9-5.232,1.199
			c-0.021-0.148-0.069-0.336-0.144-0.561c-0.075-0.224-0.155-0.426-0.24-0.607c0.234-0.011,0.48-0.023,0.736-0.04
			c0.256-0.017,0.522-0.039,0.8-0.071v-9.055H101.069z M105.148,13.826v-2.305h-3.136v2.305H105.148z M102.013,14.578v2.479h3.136
			v-2.479H102.013z M102.013,20.467l3.136-0.576v-2.063h-3.136V20.467z M107.869,12.194c-0.106,0-0.209,0.003-0.305,0.009
			s-0.188,0.014-0.271,0.023v-0.943c0.404,0.031,0.88,0.057,1.425,0.071c0.544,0.017,1.114,0.024,1.712,0.024
			c0.618,0,1.145-0.009,1.575-0.024c0.433-0.016,0.846-0.04,1.239-0.071c-0.17,0.96-0.34,1.843-0.513,2.647
			c-0.171,0.805-0.354,1.547-0.552,2.224c-0.198,0.679-0.408,1.299-0.632,1.864c-0.226,0.565-0.472,1.088-0.736,1.568
			c0.405,0.512,0.886,0.985,1.438,1.424c0.555,0.438,1.199,0.869,1.938,1.296c-0.191,0.139-0.354,0.283-0.479,0.432
			c-0.129,0.149-0.229,0.331-0.305,0.545c-0.693-0.47-1.285-0.937-1.775-1.399c-0.49-0.464-0.938-0.952-1.344-1.464
			c-0.386,0.544-0.838,1.071-1.359,1.584c-0.523,0.512-1.143,1.045-1.855,1.6c-0.117-0.202-0.238-0.357-0.361-0.464
			c-0.121-0.106-0.289-0.219-0.504-0.336c0.801-0.438,1.482-0.917,2.049-1.44c0.564-0.521,1.051-1.104,1.455-1.743
			c-0.232-0.385-0.445-0.851-0.639-1.399s-0.365-1.152-0.521-1.809c-0.155-0.655-0.288-1.345-0.4-2.063
			S107.943,12.908,107.869,12.194z M108.685,12.146c0.063,0.576,0.142,1.182,0.231,1.816c0.09,0.634,0.199,1.248,0.328,1.84
			c0.127,0.592,0.273,1.144,0.439,1.656c0.165,0.512,0.344,0.934,0.536,1.264c0.233-0.479,0.45-0.954,0.647-1.424
			c0.195-0.471,0.371-0.966,0.521-1.488s0.276-1.082,0.384-1.68c0.107-0.599,0.197-1.26,0.271-1.984H108.685z"/>
	</g>
</g>
</svg>
